<mxfile host="app.diagrams.net" modified="2023-02-15T02:53:56.085Z" agent="5.0 (Macintosh; Intel Mac OS X 10_15_7) AppleWebKit/537.36 (KHTML, like Gecko) Chrome/109.0.0.0 Safari/537.36" etag="zGQ0dYfaqPTbvF9SK9-D" version="20.8.20" type="github">
  <diagram name="第 1 页" id="5mH8K1Bypizfiuxwx8Hr">
    <mxGraphModel dx="1834" dy="1196" grid="1" gridSize="10" guides="1" tooltips="1" connect="1" arrows="1" fold="1" page="0" pageScale="1" pageWidth="827" pageHeight="1169" math="0" shadow="0">
      <root>
        <mxCell id="0" />
        <mxCell id="1" parent="0" />
        <mxCell id="ymhxMs8yh-sM8fpUY3Rv-85" value="数据组和业务共同维护key" style="rounded=0;whiteSpace=wrap;html=1;dashed=1;dashPattern=1 1;strokeColor=#FF9933;strokeWidth=3;fontSize=19;fontColor=#FF9933;align=center;verticalAlign=top;" vertex="1" parent="1">
          <mxGeometry x="10" y="360" width="270" height="240" as="geometry" />
        </mxCell>
        <mxCell id="ymhxMs8yh-sM8fpUY3Rv-83" value="数据组和业务共同维护key" style="rounded=0;whiteSpace=wrap;html=1;dashed=1;dashPattern=1 1;strokeColor=#FF9933;strokeWidth=3;fontSize=19;fontColor=#FF9933;align=center;verticalAlign=top;" vertex="1" parent="1">
          <mxGeometry x="10" width="270" height="240" as="geometry" />
        </mxCell>
        <mxCell id="ymhxMs8yh-sM8fpUY3Rv-82" value="数据组（实时及离线）&lt;div style=&quot;&quot;&gt;&lt;/div&gt;" style="rounded=0;whiteSpace=wrap;html=1;dashed=1;dashPattern=1 1;strokeColor=#FF9933;strokeWidth=3;fontSize=19;fontColor=#FF9933;align=right;verticalAlign=top;" vertex="1" parent="1">
          <mxGeometry x="-340" y="305" width="340" height="280" as="geometry" />
        </mxCell>
        <mxCell id="ymhxMs8yh-sM8fpUY3Rv-81" value="数据组（实时及离线）" style="rounded=0;whiteSpace=wrap;html=1;dashed=1;dashPattern=1 1;strokeColor=#FF9933;strokeWidth=3;fontSize=19;fontColor=#FF9933;align=right;verticalAlign=top;" vertex="1" parent="1">
          <mxGeometry x="-340" y="-55" width="340" height="280" as="geometry" />
        </mxCell>
        <mxCell id="ymhxMs8yh-sM8fpUY3Rv-80" value="mf-reCall" style="rounded=0;whiteSpace=wrap;html=1;dashed=1;dashPattern=1 2;strokeColor=#FF9933;strokeWidth=3;fontSize=19;fontColor=#FF9933;align=left;verticalAlign=top;" vertex="1" parent="1">
          <mxGeometry x="660" y="380" width="160" height="100" as="geometry" />
        </mxCell>
        <mxCell id="ymhxMs8yh-sM8fpUY3Rv-73" value="scf-resumeApi" style="rounded=0;whiteSpace=wrap;html=1;fontSize=19;dashed=1;dashPattern=1 1;strokeWidth=3;strokeColor=#FF9933;align=left;verticalAlign=top;fontColor=#FF9933;" vertex="1" parent="1">
          <mxGeometry x="470" y="270" width="150" height="400" as="geometry" />
        </mxCell>
        <mxCell id="ymhxMs8yh-sM8fpUY3Rv-33" style="edgeStyle=orthogonalEdgeStyle;shape=flexArrow;rounded=0;orthogonalLoop=1;jettySize=auto;html=1;entryX=0;entryY=0.5;entryDx=0;entryDy=0;fontSize=19;fillColor=#d5e8d4;strokeColor=#82b366;" edge="1" parent="1" source="ymhxMs8yh-sM8fpUY3Rv-4" target="ymhxMs8yh-sM8fpUY3Rv-6">
          <mxGeometry relative="1" as="geometry" />
        </mxCell>
        <mxCell id="ymhxMs8yh-sM8fpUY3Rv-4" value="" style="rounded=0;whiteSpace=wrap;html=1;fontSize=19;" vertex="1" parent="1">
          <mxGeometry x="-320" y="-40" width="120" height="250" as="geometry" />
        </mxCell>
        <mxCell id="ymhxMs8yh-sM8fpUY3Rv-2" value="ResumeDB" style="verticalLabelPosition=bottom;html=1;verticalAlign=top;align=center;strokeColor=none;fillColor=#00BEF2;shape=mxgraph.azure.mysql_database;fontSize=19;" vertex="1" parent="1">
          <mxGeometry x="-290" y="-30" width="60" height="80" as="geometry" />
        </mxCell>
        <mxCell id="ymhxMs8yh-sM8fpUY3Rv-3" value="CommonDB" style="verticalLabelPosition=bottom;html=1;verticalAlign=top;align=center;strokeColor=none;fillColor=#00BEF2;shape=mxgraph.azure.mysql_database;fontSize=19;" vertex="1" parent="1">
          <mxGeometry x="-290" y="90" width="60" height="80" as="geometry" />
        </mxCell>
        <mxCell id="ymhxMs8yh-sM8fpUY3Rv-32" style="edgeStyle=orthogonalEdgeStyle;shape=flexArrow;rounded=0;orthogonalLoop=1;jettySize=auto;html=1;entryX=0;entryY=0.5;entryDx=0;entryDy=0;fontSize=19;fillColor=#d5e8d4;strokeColor=#82b366;" edge="1" parent="1" source="ymhxMs8yh-sM8fpUY3Rv-6" target="ymhxMs8yh-sM8fpUY3Rv-9">
          <mxGeometry relative="1" as="geometry" />
        </mxCell>
        <mxCell id="ymhxMs8yh-sM8fpUY3Rv-6" value="DP平台" style="rounded=0;whiteSpace=wrap;html=1;fontSize=19;fillColor=#dae8fc;strokeColor=#6c8ebf;" vertex="1" parent="1">
          <mxGeometry x="-140" y="65" width="100" height="40" as="geometry" />
        </mxCell>
        <mxCell id="ymhxMs8yh-sM8fpUY3Rv-31" style="edgeStyle=orthogonalEdgeStyle;shape=flexArrow;rounded=0;orthogonalLoop=1;jettySize=auto;html=1;entryX=0;entryY=0.5;entryDx=0;entryDy=0;fontSize=19;fillColor=#d5e8d4;strokeColor=#82b366;" edge="1" parent="1" source="ymhxMs8yh-sM8fpUY3Rv-9" target="ymhxMs8yh-sM8fpUY3Rv-18">
          <mxGeometry relative="1" as="geometry" />
        </mxCell>
        <mxCell id="ymhxMs8yh-sM8fpUY3Rv-9" value="TMC平台" style="rounded=0;whiteSpace=wrap;html=1;fontSize=19;fillColor=#e1d5e7;strokeColor=#9673a6;" vertex="1" parent="1">
          <mxGeometry x="20" y="65" width="100" height="40" as="geometry" />
        </mxCell>
        <mxCell id="ymhxMs8yh-sM8fpUY3Rv-35" style="edgeStyle=orthogonalEdgeStyle;shape=flexArrow;rounded=0;orthogonalLoop=1;jettySize=auto;html=1;entryX=0.5;entryY=1;entryDx=0;entryDy=0;fontSize=19;fillColor=#d5e8d4;strokeColor=#82b366;" edge="1" parent="1" source="ymhxMs8yh-sM8fpUY3Rv-10" target="ymhxMs8yh-sM8fpUY3Rv-9">
          <mxGeometry relative="1" as="geometry" />
        </mxCell>
        <mxCell id="ymhxMs8yh-sM8fpUY3Rv-10" value="" style="image;html=1;image=img/lib/clip_art/people/Suit_Man_Blue_128x128.png;fontSize=19;" vertex="1" parent="1">
          <mxGeometry x="30" y="160" width="80" height="80" as="geometry" />
        </mxCell>
        <mxCell id="ymhxMs8yh-sM8fpUY3Rv-76" value="" style="edgeStyle=orthogonalEdgeStyle;shape=flexArrow;rounded=0;orthogonalLoop=1;jettySize=auto;html=1;fontSize=19;fillColor=#d5e8d4;strokeColor=#82b366;" edge="1" parent="1" source="ymhxMs8yh-sM8fpUY3Rv-18" target="ymhxMs8yh-sM8fpUY3Rv-75">
          <mxGeometry relative="1" as="geometry" />
        </mxCell>
        <mxCell id="ymhxMs8yh-sM8fpUY3Rv-18" value="openApi" style="rounded=0;whiteSpace=wrap;html=1;fontSize=19;fillColor=#e1d5e7;strokeColor=#9673a6;" vertex="1" parent="1">
          <mxGeometry x="170" y="65" width="100" height="40" as="geometry" />
        </mxCell>
        <mxCell id="ymhxMs8yh-sM8fpUY3Rv-26" value="对接TMC平台整体流程" style="text;html=1;align=center;verticalAlign=middle;resizable=0;points=[];autosize=1;strokeColor=none;fillColor=none;fontSize=19;" vertex="1" parent="1">
          <mxGeometry x="-365" y="-110" width="220" height="40" as="geometry" />
        </mxCell>
        <mxCell id="ymhxMs8yh-sM8fpUY3Rv-36" value="打分模型整体流程" style="text;html=1;align=center;verticalAlign=middle;resizable=0;points=[];autosize=1;strokeColor=none;fillColor=none;fontSize=19;" vertex="1" parent="1">
          <mxGeometry x="-365" y="250" width="180" height="40" as="geometry" />
        </mxCell>
        <mxCell id="ymhxMs8yh-sM8fpUY3Rv-49" style="edgeStyle=orthogonalEdgeStyle;shape=flexArrow;rounded=0;orthogonalLoop=1;jettySize=auto;html=1;entryX=0;entryY=0.5;entryDx=0;entryDy=0;fontSize=19;fillColor=#d5e8d4;strokeColor=#82b366;" edge="1" parent="1" source="ymhxMs8yh-sM8fpUY3Rv-50" target="ymhxMs8yh-sM8fpUY3Rv-54">
          <mxGeometry relative="1" as="geometry" />
        </mxCell>
        <mxCell id="ymhxMs8yh-sM8fpUY3Rv-50" value="" style="rounded=0;whiteSpace=wrap;html=1;fontSize=19;" vertex="1" parent="1">
          <mxGeometry x="-320" y="320" width="120" height="250" as="geometry" />
        </mxCell>
        <mxCell id="ymhxMs8yh-sM8fpUY3Rv-51" value="ResumeDB" style="verticalLabelPosition=bottom;html=1;verticalAlign=top;align=center;strokeColor=none;fillColor=#00BEF2;shape=mxgraph.azure.mysql_database;fontSize=19;" vertex="1" parent="1">
          <mxGeometry x="-290" y="330" width="60" height="80" as="geometry" />
        </mxCell>
        <mxCell id="ymhxMs8yh-sM8fpUY3Rv-52" value="CommonDB" style="verticalLabelPosition=bottom;html=1;verticalAlign=top;align=center;strokeColor=none;fillColor=#00BEF2;shape=mxgraph.azure.mysql_database;fontSize=19;" vertex="1" parent="1">
          <mxGeometry x="-290" y="450" width="60" height="80" as="geometry" />
        </mxCell>
        <mxCell id="ymhxMs8yh-sM8fpUY3Rv-53" style="edgeStyle=orthogonalEdgeStyle;shape=flexArrow;rounded=0;orthogonalLoop=1;jettySize=auto;html=1;entryX=0;entryY=0.5;entryDx=0;entryDy=0;fontSize=19;fillColor=#d5e8d4;strokeColor=#82b366;" edge="1" parent="1" source="ymhxMs8yh-sM8fpUY3Rv-54" target="ymhxMs8yh-sM8fpUY3Rv-56">
          <mxGeometry relative="1" as="geometry" />
        </mxCell>
        <mxCell id="ymhxMs8yh-sM8fpUY3Rv-54" value="DP平台" style="rounded=0;whiteSpace=wrap;html=1;fontSize=19;fillColor=#dae8fc;strokeColor=#6c8ebf;" vertex="1" parent="1">
          <mxGeometry x="-140" y="425" width="100" height="40" as="geometry" />
        </mxCell>
        <mxCell id="ymhxMs8yh-sM8fpUY3Rv-55" style="edgeStyle=orthogonalEdgeStyle;shape=flexArrow;rounded=0;orthogonalLoop=1;jettySize=auto;html=1;entryX=0;entryY=0.5;entryDx=0;entryDy=0;fontSize=19;fillColor=#d5e8d4;strokeColor=#82b366;" edge="1" parent="1" source="ymhxMs8yh-sM8fpUY3Rv-56" target="ymhxMs8yh-sM8fpUY3Rv-60">
          <mxGeometry relative="1" as="geometry" />
        </mxCell>
        <mxCell id="ymhxMs8yh-sM8fpUY3Rv-56" value="TMC平台" style="rounded=0;whiteSpace=wrap;html=1;fontSize=19;fillColor=#e1d5e7;strokeColor=#9673a6;" vertex="1" parent="1">
          <mxGeometry x="20" y="425" width="100" height="40" as="geometry" />
        </mxCell>
        <mxCell id="ymhxMs8yh-sM8fpUY3Rv-57" style="edgeStyle=orthogonalEdgeStyle;shape=flexArrow;rounded=0;orthogonalLoop=1;jettySize=auto;html=1;entryX=0.5;entryY=1;entryDx=0;entryDy=0;fontSize=19;fillColor=#d5e8d4;strokeColor=#82b366;" edge="1" parent="1" source="ymhxMs8yh-sM8fpUY3Rv-58" target="ymhxMs8yh-sM8fpUY3Rv-56">
          <mxGeometry relative="1" as="geometry" />
        </mxCell>
        <mxCell id="ymhxMs8yh-sM8fpUY3Rv-58" value="" style="image;html=1;image=img/lib/clip_art/people/Suit_Man_Blue_128x128.png;fontSize=19;" vertex="1" parent="1">
          <mxGeometry x="30" y="520" width="80" height="80" as="geometry" />
        </mxCell>
        <mxCell id="ymhxMs8yh-sM8fpUY3Rv-78" value="" style="edgeStyle=orthogonalEdgeStyle;shape=flexArrow;rounded=0;orthogonalLoop=1;jettySize=auto;html=1;fontSize=19;fillColor=#d5e8d4;strokeColor=#82b366;" edge="1" parent="1" source="ymhxMs8yh-sM8fpUY3Rv-60" target="ymhxMs8yh-sM8fpUY3Rv-77">
          <mxGeometry relative="1" as="geometry" />
        </mxCell>
        <mxCell id="ymhxMs8yh-sM8fpUY3Rv-60" value="openApi" style="rounded=0;whiteSpace=wrap;html=1;fontSize=19;fillColor=#e1d5e7;strokeColor=#9673a6;" vertex="1" parent="1">
          <mxGeometry x="170" y="425" width="100" height="40" as="geometry" />
        </mxCell>
        <mxCell id="ymhxMs8yh-sM8fpUY3Rv-64" value="" style="edgeStyle=orthogonalEdgeStyle;shape=flexArrow;rounded=0;orthogonalLoop=1;jettySize=auto;html=1;fontSize=19;fillColor=#f8cecc;strokeColor=#b85450;" edge="1" parent="1" source="ymhxMs8yh-sM8fpUY3Rv-62" target="ymhxMs8yh-sM8fpUY3Rv-63">
          <mxGeometry relative="1" as="geometry" />
        </mxCell>
        <mxCell id="ymhxMs8yh-sM8fpUY3Rv-62" value="打分模型数据初始化" style="rounded=0;whiteSpace=wrap;html=1;fontSize=19;fillColor=#fff2cc;strokeColor=#d6b656;" vertex="1" parent="1">
          <mxGeometry x="480" y="320" width="130" height="50" as="geometry" />
        </mxCell>
        <mxCell id="ymhxMs8yh-sM8fpUY3Rv-66" value="" style="edgeStyle=orthogonalEdgeStyle;shape=flexArrow;rounded=0;orthogonalLoop=1;jettySize=auto;html=1;fontSize=19;fillColor=#f8cecc;strokeColor=#b85450;" edge="1" parent="1" source="ymhxMs8yh-sM8fpUY3Rv-63" target="ymhxMs8yh-sM8fpUY3Rv-65">
          <mxGeometry relative="1" as="geometry" />
        </mxCell>
        <mxCell id="ymhxMs8yh-sM8fpUY3Rv-71" value="" style="edgeStyle=orthogonalEdgeStyle;shape=flexArrow;rounded=0;orthogonalLoop=1;jettySize=auto;html=1;fontSize=19;fillColor=#f8cecc;strokeColor=#b85450;" edge="1" parent="1" source="ymhxMs8yh-sM8fpUY3Rv-63" target="ymhxMs8yh-sM8fpUY3Rv-70">
          <mxGeometry relative="1" as="geometry" />
        </mxCell>
        <mxCell id="ymhxMs8yh-sM8fpUY3Rv-79" style="edgeStyle=orthogonalEdgeStyle;shape=flexArrow;rounded=0;orthogonalLoop=1;jettySize=auto;html=1;fontSize=19;fillColor=#f8cecc;strokeColor=#b85450;" edge="1" parent="1" source="ymhxMs8yh-sM8fpUY3Rv-63" target="ymhxMs8yh-sM8fpUY3Rv-77">
          <mxGeometry relative="1" as="geometry" />
        </mxCell>
        <mxCell id="ymhxMs8yh-sM8fpUY3Rv-63" value="打分模型数据&lt;br&gt;取值" style="rounded=0;whiteSpace=wrap;html=1;fontSize=19;fillColor=#fff2cc;strokeColor=#d6b656;" vertex="1" parent="1">
          <mxGeometry x="480" y="420" width="130" height="50" as="geometry" />
        </mxCell>
        <mxCell id="ymhxMs8yh-sM8fpUY3Rv-68" value="" style="edgeStyle=orthogonalEdgeStyle;shape=flexArrow;rounded=0;orthogonalLoop=1;jettySize=auto;html=1;fontSize=19;fillColor=#f8cecc;strokeColor=#b85450;" edge="1" parent="1" source="ymhxMs8yh-sM8fpUY3Rv-65" target="ymhxMs8yh-sM8fpUY3Rv-67">
          <mxGeometry relative="1" as="geometry" />
        </mxCell>
        <mxCell id="ymhxMs8yh-sM8fpUY3Rv-65" value="打分模型数据&lt;br&gt;计算" style="rounded=0;whiteSpace=wrap;html=1;fontSize=19;fillColor=#fff2cc;strokeColor=#d6b656;" vertex="1" parent="1">
          <mxGeometry x="480" y="510" width="130" height="50" as="geometry" />
        </mxCell>
        <mxCell id="ymhxMs8yh-sM8fpUY3Rv-67" value="打分模型数据&lt;br&gt;日志" style="rounded=0;whiteSpace=wrap;html=1;fontSize=19;fillColor=#fff2cc;strokeColor=#d6b656;" vertex="1" parent="1">
          <mxGeometry x="480" y="600" width="130" height="50" as="geometry" />
        </mxCell>
        <mxCell id="ymhxMs8yh-sM8fpUY3Rv-70" value="算法工程&lt;br&gt;权重得分" style="rounded=0;whiteSpace=wrap;html=1;fontSize=19;fillColor=#fff2cc;strokeColor=#d6b656;" vertex="1" parent="1">
          <mxGeometry x="670" y="420" width="130" height="50" as="geometry" />
        </mxCell>
        <mxCell id="ymhxMs8yh-sM8fpUY3Rv-74" value="替换推荐过滤整体架构" style="text;html=1;align=center;verticalAlign=middle;resizable=0;points=[];autosize=1;strokeColor=none;fillColor=none;fontSize=19;" vertex="1" parent="1">
          <mxGeometry x="-365" y="720" width="210" height="40" as="geometry" />
        </mxCell>
        <mxCell id="ymhxMs8yh-sM8fpUY3Rv-75" value="mf-proxy" style="rounded=0;whiteSpace=wrap;html=1;fontSize=19;fillColor=#e1d5e7;strokeColor=#9673a6;" vertex="1" parent="1">
          <mxGeometry x="320" y="65" width="100" height="40" as="geometry" />
        </mxCell>
        <mxCell id="ymhxMs8yh-sM8fpUY3Rv-77" value="mf-proxy" style="rounded=0;whiteSpace=wrap;html=1;fontSize=19;fillColor=#e1d5e7;strokeColor=#9673a6;" vertex="1" parent="1">
          <mxGeometry x="320" y="425" width="100" height="40" as="geometry" />
        </mxCell>
        <mxCell id="ymhxMs8yh-sM8fpUY3Rv-86" value="数据组和业务共同维护key" style="rounded=0;whiteSpace=wrap;html=1;dashed=1;dashPattern=1 1;strokeColor=#FF9933;strokeWidth=3;fontSize=19;fontColor=#FF9933;align=center;verticalAlign=top;" vertex="1" parent="1">
          <mxGeometry x="10" y="822.5" width="270" height="240" as="geometry" />
        </mxCell>
        <mxCell id="ymhxMs8yh-sM8fpUY3Rv-87" value="数据组（实时及离线）" style="rounded=0;whiteSpace=wrap;html=1;dashed=1;dashPattern=1 1;strokeColor=#FF9933;strokeWidth=3;fontSize=19;fontColor=#FF9933;align=right;verticalAlign=top;" vertex="1" parent="1">
          <mxGeometry x="-340" y="767.5" width="340" height="280" as="geometry" />
        </mxCell>
        <mxCell id="ymhxMs8yh-sM8fpUY3Rv-88" style="edgeStyle=orthogonalEdgeStyle;shape=flexArrow;rounded=0;orthogonalLoop=1;jettySize=auto;html=1;entryX=0;entryY=0.5;entryDx=0;entryDy=0;fontSize=19;fillColor=#d5e8d4;strokeColor=#82b366;" edge="1" parent="1" source="ymhxMs8yh-sM8fpUY3Rv-89" target="ymhxMs8yh-sM8fpUY3Rv-93">
          <mxGeometry relative="1" as="geometry" />
        </mxCell>
        <mxCell id="ymhxMs8yh-sM8fpUY3Rv-89" value="" style="rounded=0;whiteSpace=wrap;html=1;fontSize=19;" vertex="1" parent="1">
          <mxGeometry x="-320" y="782.5" width="120" height="250" as="geometry" />
        </mxCell>
        <mxCell id="ymhxMs8yh-sM8fpUY3Rv-90" value="ResumeDB" style="verticalLabelPosition=bottom;html=1;verticalAlign=top;align=center;strokeColor=none;fillColor=#00BEF2;shape=mxgraph.azure.mysql_database;fontSize=19;" vertex="1" parent="1">
          <mxGeometry x="-290" y="792.5" width="60" height="80" as="geometry" />
        </mxCell>
        <mxCell id="ymhxMs8yh-sM8fpUY3Rv-91" value="CommonDB" style="verticalLabelPosition=bottom;html=1;verticalAlign=top;align=center;strokeColor=none;fillColor=#00BEF2;shape=mxgraph.azure.mysql_database;fontSize=19;" vertex="1" parent="1">
          <mxGeometry x="-290" y="912.5" width="60" height="80" as="geometry" />
        </mxCell>
        <mxCell id="ymhxMs8yh-sM8fpUY3Rv-92" style="edgeStyle=orthogonalEdgeStyle;shape=flexArrow;rounded=0;orthogonalLoop=1;jettySize=auto;html=1;entryX=0;entryY=0.5;entryDx=0;entryDy=0;fontSize=19;fillColor=#d5e8d4;strokeColor=#82b366;" edge="1" parent="1" source="ymhxMs8yh-sM8fpUY3Rv-93" target="ymhxMs8yh-sM8fpUY3Rv-95">
          <mxGeometry relative="1" as="geometry" />
        </mxCell>
        <mxCell id="ymhxMs8yh-sM8fpUY3Rv-93" value="DP平台" style="rounded=0;whiteSpace=wrap;html=1;fontSize=19;fillColor=#dae8fc;strokeColor=#6c8ebf;" vertex="1" parent="1">
          <mxGeometry x="-140" y="887.5" width="100" height="40" as="geometry" />
        </mxCell>
        <mxCell id="ymhxMs8yh-sM8fpUY3Rv-94" style="edgeStyle=orthogonalEdgeStyle;shape=flexArrow;rounded=0;orthogonalLoop=1;jettySize=auto;html=1;entryX=0;entryY=0.5;entryDx=0;entryDy=0;fontSize=19;fillColor=#d5e8d4;strokeColor=#82b366;" edge="1" parent="1" source="ymhxMs8yh-sM8fpUY3Rv-95" target="ymhxMs8yh-sM8fpUY3Rv-99">
          <mxGeometry relative="1" as="geometry" />
        </mxCell>
        <mxCell id="ymhxMs8yh-sM8fpUY3Rv-95" value="TMC平台" style="rounded=0;whiteSpace=wrap;html=1;fontSize=19;fillColor=#e1d5e7;strokeColor=#9673a6;" vertex="1" parent="1">
          <mxGeometry x="20" y="887.5" width="100" height="40" as="geometry" />
        </mxCell>
        <mxCell id="ymhxMs8yh-sM8fpUY3Rv-96" style="edgeStyle=orthogonalEdgeStyle;shape=flexArrow;rounded=0;orthogonalLoop=1;jettySize=auto;html=1;entryX=0.5;entryY=1;entryDx=0;entryDy=0;fontSize=19;fillColor=#d5e8d4;strokeColor=#82b366;" edge="1" parent="1" source="ymhxMs8yh-sM8fpUY3Rv-97" target="ymhxMs8yh-sM8fpUY3Rv-95">
          <mxGeometry relative="1" as="geometry" />
        </mxCell>
        <mxCell id="ymhxMs8yh-sM8fpUY3Rv-97" value="" style="image;html=1;image=img/lib/clip_art/people/Suit_Man_Blue_128x128.png;fontSize=19;" vertex="1" parent="1">
          <mxGeometry x="30" y="982.5" width="80" height="80" as="geometry" />
        </mxCell>
        <mxCell id="ymhxMs8yh-sM8fpUY3Rv-98" value="" style="edgeStyle=orthogonalEdgeStyle;shape=flexArrow;rounded=0;orthogonalLoop=1;jettySize=auto;html=1;fontSize=19;fillColor=#d5e8d4;strokeColor=#82b366;" edge="1" parent="1" source="ymhxMs8yh-sM8fpUY3Rv-99" target="ymhxMs8yh-sM8fpUY3Rv-101">
          <mxGeometry relative="1" as="geometry" />
        </mxCell>
        <mxCell id="ymhxMs8yh-sM8fpUY3Rv-99" value="openApi" style="rounded=0;whiteSpace=wrap;html=1;fontSize=19;fillColor=#e1d5e7;strokeColor=#9673a6;" vertex="1" parent="1">
          <mxGeometry x="170" y="887.5" width="100" height="40" as="geometry" />
        </mxCell>
        <mxCell id="ymhxMs8yh-sM8fpUY3Rv-101" value="mf-proxy" style="rounded=0;whiteSpace=wrap;html=1;fontSize=19;fillColor=#e1d5e7;strokeColor=#9673a6;" vertex="1" parent="1">
          <mxGeometry x="320" y="887.5" width="100" height="40" as="geometry" />
        </mxCell>
        <mxCell id="ymhxMs8yh-sM8fpUY3Rv-102" value="scf-resumeApi" style="rounded=0;whiteSpace=wrap;html=1;fontSize=19;dashed=1;dashPattern=1 1;strokeWidth=3;strokeColor=#FF9933;align=left;verticalAlign=top;fontColor=#FF9933;" vertex="1" parent="1">
          <mxGeometry x="470" y="760" width="150" height="360" as="geometry" />
        </mxCell>
        <mxCell id="ymhxMs8yh-sM8fpUY3Rv-103" value="" style="edgeStyle=orthogonalEdgeStyle;shape=flexArrow;rounded=0;orthogonalLoop=1;jettySize=auto;html=1;fontSize=19;fillColor=#f8cecc;strokeColor=#b85450;" edge="1" parent="1" source="ymhxMs8yh-sM8fpUY3Rv-104" target="ymhxMs8yh-sM8fpUY3Rv-106">
          <mxGeometry relative="1" as="geometry" />
        </mxCell>
        <mxCell id="ymhxMs8yh-sM8fpUY3Rv-104" value="推荐工程召回" style="rounded=0;whiteSpace=wrap;html=1;fontSize=19;fillColor=#fff2cc;strokeColor=#d6b656;" vertex="1" parent="1">
          <mxGeometry x="480" y="800" width="130" height="50" as="geometry" />
        </mxCell>
        <mxCell id="ymhxMs8yh-sM8fpUY3Rv-105" value="" style="edgeStyle=orthogonalEdgeStyle;shape=flexArrow;rounded=0;orthogonalLoop=1;jettySize=auto;html=1;fontSize=19;fillColor=#f8cecc;strokeColor=#b85450;" edge="1" parent="1" source="ymhxMs8yh-sM8fpUY3Rv-106" target="ymhxMs8yh-sM8fpUY3Rv-108">
          <mxGeometry relative="1" as="geometry" />
        </mxCell>
        <mxCell id="ymhxMs8yh-sM8fpUY3Rv-112" style="edgeStyle=orthogonalEdgeStyle;shape=flexArrow;rounded=0;orthogonalLoop=1;jettySize=auto;html=1;fontSize=19;fontColor=#FF9933;fillColor=#f8cecc;strokeColor=#b85450;" edge="1" parent="1" source="ymhxMs8yh-sM8fpUY3Rv-106" target="ymhxMs8yh-sM8fpUY3Rv-101">
          <mxGeometry relative="1" as="geometry" />
        </mxCell>
        <mxCell id="ymhxMs8yh-sM8fpUY3Rv-106" value="推荐工程过滤" style="rounded=0;whiteSpace=wrap;html=1;fontSize=19;fillColor=#fff2cc;strokeColor=#d6b656;" vertex="1" parent="1">
          <mxGeometry x="480" y="882.5" width="130" height="50" as="geometry" />
        </mxCell>
        <mxCell id="ymhxMs8yh-sM8fpUY3Rv-107" value="" style="edgeStyle=orthogonalEdgeStyle;shape=flexArrow;rounded=0;orthogonalLoop=1;jettySize=auto;html=1;fontSize=19;fillColor=#f8cecc;strokeColor=#b85450;" edge="1" parent="1" source="ymhxMs8yh-sM8fpUY3Rv-108" target="ymhxMs8yh-sM8fpUY3Rv-109">
          <mxGeometry relative="1" as="geometry" />
        </mxCell>
        <mxCell id="ymhxMs8yh-sM8fpUY3Rv-108" value="推荐工程粗排" style="rounded=0;whiteSpace=wrap;html=1;fontSize=19;fillColor=#fff2cc;strokeColor=#d6b656;" vertex="1" parent="1">
          <mxGeometry x="480" y="970" width="130" height="50" as="geometry" />
        </mxCell>
        <mxCell id="ymhxMs8yh-sM8fpUY3Rv-109" value="推荐工程精排" style="rounded=0;whiteSpace=wrap;html=1;fontSize=19;fillColor=#fff2cc;strokeColor=#d6b656;" vertex="1" parent="1">
          <mxGeometry x="480" y="1060" width="130" height="50" as="geometry" />
        </mxCell>
      </root>
    </mxGraphModel>
  </diagram>
</mxfile>
